<svg xmlns="http://www.w3.org/2000/svg" version="1.1" xmlns:xlink="http://www.w3.org/1999/xlink" xmlns:svgjs="http://svgjs.dev/svgjs" width="2000" height="1492" viewBox="0 0 2000 1492"><g transform="matrix(1,0,0,1,1.3954162373609051,0.6051640310681705)"><svg viewBox="0 0 331 247" data-background-color="#c9efc7" preserveAspectRatio="xMidYMid meet" height="1492" width="2000" xmlns="http://www.w3.org/2000/svg" xmlns:xlink="http://www.w3.org/1999/xlink"><g id="tight-bounds" transform="matrix(1,0,0,1,-0.23094138728322378,-0.09997365579206985)"><svg viewBox="0 0 331.46188277456645 247.2" height="247.2" width="331.46188277456645"><g><svg viewBox="0 0 331.46188277456645 247.2" height="247.2" width="331.46188277456645"><g><svg viewBox="0 0 331.46188277456645 247.2" height="247.2" width="331.46188277456645"><g id="textblocktransform"><svg viewBox="0 0 331.46188277456645 247.2" height="247.2" width="331.46188277456645" id="textblock"><g><svg viewBox="0 0 331.46188277456645 247.2" height="247.2" width="331.46188277456645"><path d="M330.686 53.02C329.128 27.36 324.687 20.227 324.687 20.227 311.052-6.202 294.035-0.506 278.749 3.292 251.759 3.446 224.879 9.091 197.952 12.119 141.434 12.581 84.432 4.986 28.194 23.717 22.911 29.464-5.48 24.846 0.94 56.304 2.623 69.39 8.762 83.913 8.575 95.922 9.417 98.026 10.585 93.202 11.084 96.23 12.829 104.39 15.681 100.541 18.018 105.365 14.762 118.246 17.099 128.971 19.327 140.21 15.4 143.135 10.367 141.749 8.108 151.449 7.874 158.479 6.612 157.145 5.225 156.837 4.212 156.632 2.171 157.402 2.513 159.608 3.682 167.152-1.335 171.514 1.812 178.904-0.354 186.91 3.308 193.838 2.81 202.511 2.747 204.255 3.09 205.744 3.635 206.154 6.051 208.361 2.529 212.672 2.903 217.342 27.68 249.262 54.56 227.195 79.944 241.872 86.536 231.608 81.58 245.516 84.214 243.36 86.271 240.846 87.767 251.263 90.088 245.362 90.447 243.668 89.901 239.665 91.179 240.435 91.849 240.846 92.441 240.743 92.535 238.382 92.675 234.841 91.444 237.048 91.117 235.201 94.654 225.861 93.782 248.081 97.101 247.158 96.945 244.438 95.979 240.538 97.958 241.051 99.921 237.151 99.983 233.918 101.729 242.693 101.791 244.592 102.103 245.926 102.601 246.85 108.055 237.305 113.478 250.237 119.197 245.926 122.703 241.205 126.069 248.492 129.622 246.696 130.868 245.259 132.131 242.693 133.331 247.004 148.025 247.928 163.686 244.079 177.617 247.158 214.844 241.41 254.627 249.518 293.879 241.923 303.136 238.998 312.75 234.841 321.773 231.506 321.773 231.506 329.081 222.371 329.081 181.316S330.639 145.393 330.873 112.703C331.107 80.013 332.197 78.679 330.639 53.02Z" opacity="1" fill="#528265" data-fill-palette-color="tertiary"></path><g transform="matrix(1,0,0,1,55.76831999999999,26.230666666666668)"><svg width="219.92524277456647" viewBox="0.98 -33.79 38.160000000000004 33.79" height="194.73866666666666" data-palette-color="#c9efc7"><path d="M16.26-25.81L16.26-25.81 16.26-18.8 23.85-18.8 23.85-25.81Q23.85-26.86 23.36-27.38 22.88-27.91 22.23-28.31 21.58-28.71 21.09-29.32 20.61-29.93 20.61-31.13L20.61-31.13Q20.61-32.52 21.4-33.15 22.19-33.79 23.51-33.79L23.51-33.79 36.21-33.79Q37.52-33.79 38.33-33.15 39.14-32.52 39.14-31.13L39.14-31.13Q39.14-29.88 38.65-29.27 38.16-28.66 37.5-28.28 36.84-27.91 36.35-27.39 35.86-26.88 35.86-25.81L35.86-25.81 35.86-7.98Q35.86-6.91 36.35-6.4 36.84-5.88 37.5-5.51 38.16-5.13 38.65-4.53 39.14-3.93 39.14-2.66L39.14-2.66Q39.14-1.27 38.33-0.63 37.52 0 36.21 0L36.21 0 23.51 0Q22.19 0 21.4-0.63 20.61-1.27 20.61-2.66L20.61-2.66Q20.61-3.93 21.09-4.53 21.58-5.13 22.23-5.51 22.88-5.88 23.36-6.4 23.85-6.91 23.85-7.98L23.85-7.98 23.85-13.38 16.26-13.38 16.26-7.98Q16.26-6.96 16.75-6.45 17.24-5.93 17.9-5.54 18.55-5.15 19.04-4.53 19.53-3.91 19.53-2.66L19.53-2.66Q19.53-1.27 18.73-0.63 17.92 0 16.6 0L16.6 0 3.91 0Q2.59 0 1.78-0.63 0.98-1.27 0.98-2.66L0.98-2.66Q0.98-3.88 1.46-4.49 1.95-5.1 2.61-5.49 3.27-5.88 3.76-6.41 4.25-6.93 4.25-7.98L4.25-7.98 4.25-25.81Q4.25-26.86 3.76-27.38 3.27-27.91 2.61-28.3 1.95-28.69 1.46-29.3 0.98-29.91 0.98-31.13L0.98-31.13Q0.98-32.52 1.78-33.15 2.59-33.79 3.91-33.79L3.91-33.79 16.6-33.79Q17.92-33.79 18.73-33.15 19.53-32.52 19.53-31.13L19.53-31.13Q19.53-29.91 19.04-29.3 18.55-28.69 17.9-28.3 17.24-27.91 16.75-27.38 16.26-26.86 16.26-25.81Z" opacity="1" transform="matrix(1,0,0,1,0,0)" fill="#c9efc7" class="wordmark-text-0" data-fill-palette-color="quaternary" id="text-0"></path></svg></g></svg></g></svg></g></svg></g><g></g></svg></g><defs></defs></svg><rect width="331.46188277456645" height="247.2" fill="none" stroke="none" visibility="hidden"></rect></g></svg></g></svg>